<svg xmlns="http://www.w3.org/2000/svg" xmlns:xlink="http://www.w3.org/1999/xlink" width="500" zoomAndPan="magnify" viewBox="0 0 375 374.999991" height="500" preserveAspectRatio="xMidYMid meet" version="1.0"><path fill="#ffffff" d="M 356.414062 332.863281 C 346.8125 332.882812 339.070312 340.679688 339.070312 350.242188 C 339.082031 359.84375 346.84375 367.625 356.445312 367.601562 C 366 367.589844 373.753906 359.820312 373.75 350.230469 C 373.75 340.640625 365.96875 332.863281 356.414062 332.863281 M 356.445312 365.960938 C 347.75 365.960938 340.730469 358.941406 340.726562 350.242188 C 340.726562 341.550781 347.726562 334.507812 356.425781 334.507812 C 365.082031 334.507812 372.117188 341.527344 372.125 350.230469 C 372.125 358.921875 365.105469 365.949219 356.445312 365.960938 " fill-opacity="1" fill-rule="nonzero"/><path fill="#ffffff" d="M 364.820312 358.4375 C 364.125 358.019531 363.285156 357.136719 362.320312 355.769531 L 358.082031 349.875 C 359.8125 349.476562 361.085938 348.824219 361.902344 347.902344 C 362.730469 346.976562 363.160156 345.886719 363.148438 344.613281 C 363.148438 343.4375 362.773438 342.425781 362.039062 341.566406 C 361.328125 340.710938 360.445312 340.132812 359.414062 339.816406 C 358.371094 339.484375 356.773438 339.332031 354.609375 339.332031 L 347.136719 339.347656 L 347.136719 339.914062 L 347.914062 339.902344 C 348.675781 339.902344 349.269531 340.097656 349.675781 340.566406 C 349.9375 340.859375 350.09375 341.671875 350.097656 342.980469 L 350.113281 356.222656 C 350.113281 357.40625 350.003906 358.15625 349.777344 358.453125 C 349.417969 359.019531 348.796875 359.328125 347.925781 359.328125 L 347.15625 359.328125 L 347.15625 359.867188 L 355.953125 359.867188 L 355.953125 359.328125 L 355.132812 359.328125 C 354.382812 359.328125 353.796875 359.09375 353.410156 358.652344 C 353.132812 358.332031 352.988281 357.503906 352.988281 356.222656 L 352.988281 350.265625 C 353.140625 350.277344 353.292969 350.277344 353.46875 350.289062 L 353.882812 350.289062 C 354.214844 350.289062 354.617188 350.277344 355.132812 350.265625 L 362.0625 359.855469 L 367.542969 359.855469 L 367.542969 359.3125 C 366.421875 359.179688 365.515625 358.898438 364.820312 358.4375 M 353.835938 349.316406 L 353.476562 349.316406 C 353.34375 349.308594 353.171875 349.308594 352.988281 349.308594 L 352.972656 340.761719 C 353.972656 340.578125 354.765625 340.480469 355.351562 340.480469 C 356.671875 340.480469 357.730469 340.882812 358.53125 341.699219 C 359.316406 342.488281 359.742188 343.53125 359.742188 344.8125 C 359.742188 346.117188 359.246094 347.203125 358.25 348.039062 C 357.242188 348.898438 355.789062 349.316406 353.835938 349.316406 " fill-opacity="1" fill-rule="nonzero"/><path fill="#ffffff" d="M 265.601562 109.289062 C 266.394531 100.527344 278.863281 100.074219 275.132812 90.972656 C 270.980469 90.175781 267.632812 88.058594 264.265625 86.8125 C 262.644531 85.585938 260.542969 85.152344 258.058594 85.59375 C 247.28125 90.996094 243.578125 100.09375 238.960938 109.671875 C 238.546875 111.335938 237.75 112.589844 236.855469 113.824219 C 236.796875 114.03125 236.726562 114.265625 236.566406 114.472656 C 235.921875 115.941406 235.5625 117.332031 234.828125 118.414062 C 234.320312 119.742188 233.515625 120.8125 232.792969 121.859375 C 231.039062 123.96875 229.152344 125.863281 228.636719 129.222656 C 229.59375 131.488281 230.738281 132.714844 232.804688 133.398438 C 233.398438 133.519531 234.042969 133.667969 234.851562 133.816406 C 235.484375 134.464844 236.148438 134.601562 236.578125 134.601562 L 236.875 134.601562 C 237.753906 134.601562 238.210938 133.816406 238.988281 133.375 C 239.796875 132.929688 240.6875 132.570312 241.484375 132.929688 C 249.785156 125.046875 256.421875 118.402344 264.289062 110.535156 C 264.734375 110.089844 265.175781 109.660156 265.601562 109.289062 " fill-opacity="1" fill-rule="nonzero"/><path fill="#ffffff" d="M 95.847656 257.308594 C 92.917969 259.367188 93.730469 262.289062 95.855469 264.757812 C 102.058594 267.691406 106.207031 276.722656 115.75 272.195312 C 124.066406 263.945312 131.929688 254.75 138.570312 245.183594 C 139.734375 243.722656 140.757812 242.132812 141.703125 240.507812 C 142.859375 238.613281 143.894531 236.65625 144.835938 234.832031 C 143.949219 233.738281 142.859375 232.789062 141.695312 231.976562 C 140.664062 231.25 139.589844 230.683594 138.566406 230.226562 C 121.125 221.929688 111.167969 251.476562 95.847656 257.308594 " fill-opacity="1" fill-rule="nonzero"/><path fill="#ffffff" d="M 209.632812 62.871094 C 188.402344 69.664062 199.957031 94.816406 196.679688 111.371094 L 195 113.046875 C 195.871094 115.972656 193.765625 119.683594 196.695312 121.367188 C 201.945312 124.1875 206.386719 118.734375 209.664062 115.8125 C 209.804688 115.667969 209.882812 115.59375 209.960938 115.519531 C 213.664062 99.75 218.175781 83.132812 220.632812 67.734375 C 221.070312 60.667969 213.269531 64.828125 209.921875 62.785156 C 209.84375 62.785156 209.761719 62.785156 209.632812 62.871094 " fill-opacity="1" fill-rule="nonzero"/><path fill="#ffffff" d="M 282.65625 184.839844 C 278.066406 184.042969 271.039062 184.050781 265.65625 182.011719 L 264.339844 182.011719 C 259.839844 181.582031 255.660156 182.019531 253.992188 186.539062 C 253.992188 192.375 257.339844 194.039062 259.398438 198.578125 C 261.0625 199.425781 262.734375 200.242188 264.347656 201.101562 C 274.785156 205.277344 286.390625 208.539062 297.640625 211.898438 C 300.980469 211.886719 307.191406 212.675781 309.292969 208.070312 C 312.195312 201.878906 307.183594 197.730469 305.921875 192.765625 C 298.46875 189.40625 290.53125 187.386719 282.65625 184.839844 " fill-opacity="1" fill-rule="nonzero"/><path fill="#ffffff" d="M 124.421875 146.742188 C 118.585938 140.09375 111.078125 138.050781 103.625 133.914062 C 94.511719 130.121094 84.9375 119.339844 75.390625 126.847656 C 67.085938 157.203125 105.671875 146.753906 119.84375 162.128906 C 123.199219 162.929688 126.101562 166.277344 128.964844 162.929688 C 130.195312 155.925781 127.34375 152.5625 124.421875 146.742188 " fill-opacity="1" fill-rule="nonzero"/><path fill="#ffffff" d="M 138.46875 97.265625 C 139.492188 98.949219 140.515625 100.550781 141.609375 102.152344 C 147.742188 111.199219 155.046875 119.867188 161.757812 127.601562 C 164.527344 128.398438 168.84375 129.1875 171.007812 127.15625 C 171.09375 127.007812 171.230469 126.933594 171.308594 126.773438 C 174.652344 121.023438 173.5625 116.125 171.007812 111.679688 C 167.792969 106.128906 162.398438 101.25 160.496094 96.453125 C 153.03125 88.941406 153.828125 74.886719 142.226562 72.398438 C 142.023438 72.472656 141.800781 72.519531 141.59375 72.59375 C 140.558594 73.050781 139.519531 73.789062 138.445312 74.429688 C 135.171875 76.914062 133.054688 81.078125 132.261719 84.871094 C 133.933594 88.953125 135.980469 93.117188 138.46875 97.265625 " fill-opacity="1" fill-rule="nonzero"/><path fill="#ffffff" d="M 122.796875 210.335938 C 126.503906 208.648438 125.71875 204.929688 123.578125 202.011719 C 106.144531 195.390625 84.558594 194.515625 67.941406 202.863281 C 67.792969 203.578125 67.65625 204.242188 67.65625 204.980469 L 67.65625 206.222656 C 67.867188 210.433594 70.070312 214.828125 73.34375 217.449219 C 92.023438 220.699219 105.726562 211.589844 122.796875 210.335938 " fill-opacity="1" fill-rule="nonzero"/><path fill="#ffffff" d="M 236.941406 235.214844 C 237.390625 236.789062 238.285156 238.121094 239.066406 239.347656 C 244.472656 246.785156 256.515625 252.175781 264.394531 259.246094 C 266.074219 260.476562 267.769531 262.160156 268.988281 263.832031 C 273.953125 266.753906 279.441406 262.148438 283.523438 258.40625 C 285.171875 254.28125 283.949219 249.679688 281.882812 246.402344 C 276.496094 240.929688 270.652344 237.652344 264.382812 234.746094 C 256.132812 230.585938 247.386719 226.882812 239.496094 221.03125 L 239.046875 221.476562 C 238.285156 223.089844 237.378906 224.761719 236.941406 226.4375 C 236.878906 226.953125 236.738281 227.386719 236.652344 227.902344 C 236.214844 230.167969 236.214844 232.199219 236.660156 234.03125 C 236.738281 234.464844 236.894531 234.835938 236.941406 235.214844 " fill-opacity="1" fill-rule="nonzero"/><path fill="#ffffff" d="M 265.625 145.371094 C 265.195312 145.386719 264.765625 145.386719 264.308594 145.386719 C 260.171875 146.628906 256.085938 149.546875 253.167969 153.703125 C 256.085938 157.859375 260.1875 157.859375 264.328125 159.097656 L 264.328125 158.730469 C 277.222656 155.371094 290.492188 150.410156 304.222656 148.277344 C 307.136719 145.363281 311.269531 142.441406 310.050781 139.15625 C 308.363281 132.519531 304.195312 127.128906 298.425781 124.570312 C 290.121094 127.484375 285.984375 134.132812 277.214844 135.820312 C 274.304688 140.410156 266.429688 140.410156 265.625 145.371094 " fill-opacity="1" fill-rule="nonzero"/><path fill="#ffffff" d="M 231.597656 276.625 C 224.226562 266.863281 227.335938 245.554688 209.761719 243.964844 C 209.601562 243.964844 209.382812 243.90625 209.246094 243.90625 C 193.863281 249.730469 208.824219 263.871094 208.390625 272.121094 C 208.90625 273.203125 209.414062 274.300781 209.785156 275.480469 C 212.703125 283.570312 213.433594 293.050781 219.203125 299.90625 C 226 301.949219 229.199219 297.859375 232.917969 293.554688 C 233.648438 292.582031 234.519531 291.65625 235.398438 290.769531 C 236.40625 286.964844 234.867188 282.621094 232.910156 278.878906 C 232.476562 278.078125 232.019531 277.367188 231.597656 276.625 " fill-opacity="1" fill-rule="nonzero"/><path fill="#ffffff" d="M 171.09375 249.457031 C 165.996094 251.574219 164.699219 255.671875 161.84375 260.128906 C 159.800781 262.679688 160.617188 267.1875 158.148438 269.238281 L 157.347656 274.632812 C 151.070312 281.277344 151.085938 288.347656 148.15625 297.476562 C 151.019531 306.367188 166.121094 304.605469 171.140625 297.113281 C 171.9375 295.84375 172.535156 294.476562 172.671875 292.9375 C 178.128906 280.46875 181.398438 265.953125 182.261719 252.238281 C 179.347656 249.738281 174.316406 249.753906 171.394531 249.335938 C 171.332031 249.386719 171.179688 249.457031 171.09375 249.457031 " fill-opacity="1" fill-rule="nonzero"/><path fill="#ffffff" d="M 35.835938 224.15625 C 34.171875 222.804688 32.429688 222.066406 30.621094 221.953125 C 28.808594 221.855469 26.4375 222.238281 23.480469 223.113281 L 11.53125 226.632812 C 9.890625 227.125 8.808594 227.285156 8.265625 227.101562 C 7.117188 226.78125 6.363281 226.019531 6.019531 224.875 L 5.6875 223.765625 L 4.894531 224.027344 L 7.972656 234.425781 L 8.769531 234.179688 L 8.449219 233.085938 C 8.117188 231.964844 8.1875 231.039062 8.65625 230.28125 C 8.992188 229.734375 10.101562 229.195312 11.941406 228.652344 L 23.863281 225.117188 C 26.996094 224.195312 29.296875 223.8125 30.777344 224 C 32.246094 224.15625 33.625 224.875 34.929688 226.152344 C 36.210938 227.433594 37.136719 229.019531 37.71875 230.953125 C 38.15625 232.457031 38.265625 233.796875 38.039062 235.003906 C 37.808594 236.199219 37.34375 237.207031 36.695312 237.996094 C 36.039062 238.796875 34.996094 239.523438 33.582031 240.160156 C 32.160156 240.800781 30.886719 241.308594 29.71875 241.625 L 16.898438 245.433594 C 15.246094 245.910156 14.101562 246.046875 13.472656 245.847656 C 12.558594 245.542969 11.910156 244.800781 11.5625 243.570312 L 11.214844 242.453125 L 10.410156 242.6875 L 14.175781 255.4375 L 14.980469 255.195312 L 14.65625 254.074219 C 14.324219 252.953125 14.371094 252.054688 14.785156 251.402344 C 15.207031 250.734375 16.324219 250.148438 18.136719 249.59375 L 29.628906 246.183594 C 33.191406 245.148438 35.539062 244.191406 36.695312 243.363281 C 38.375 242.09375 39.535156 240.46875 40.164062 238.460938 C 40.769531 236.484375 40.59375 233.882812 39.664062 230.660156 C 38.785156 227.691406 37.515625 225.546875 35.835938 224.15625 " fill-opacity="1" fill-rule="nonzero"/><path fill="#ffffff" d="M 5.066406 211.933594 C 5.378906 211.46875 6.011719 210.742188 7 209.769531 L 28.324219 208.402344 C 30.046875 208.316406 31.164062 208.402344 31.667969 208.722656 C 32.488281 209.214844 32.929688 210.101562 33.019531 211.429688 L 33.085938 212.476562 L 33.933594 212.441406 L 33.25 201.753906 L 32.414062 201.820312 L 32.46875 202.886719 C 32.546875 204.09375 32.292969 204.980469 31.699219 205.609375 C 31.242188 206.050781 30.089844 206.335938 28.203125 206.429688 L 9.320312 207.640625 L 32.738281 185.835938 L 32.691406 185.027344 L 6.851562 186.671875 C 5.113281 186.789062 4.011719 186.6875 3.515625 186.378906 C 2.683594 185.902344 2.222656 185 2.148438 183.707031 L 2.078125 182.609375 L 1.25 182.6875 L 1.921875 193.347656 L 2.765625 193.296875 L 2.6875 192.214844 C 2.605469 191.03125 2.875 190.121094 3.472656 189.507812 C 3.925781 189.074219 5.066406 188.792969 6.949219 188.65625 L 24.652344 187.535156 L 2.835938 207.761719 L 3.375 216.070312 L 4.203125 216.035156 C 4.140625 215.136719 4.179688 214.46875 4.269531 214.015625 C 4.5 213.121094 4.769531 212.402344 5.066406 211.933594 " fill-opacity="1" fill-rule="nonzero"/><path fill="#ffffff" d="M 3.128906 173.601562 C 3.191406 172.886719 3.433594 172.230469 3.871094 171.597656 C 4.179688 171.152344 4.542969 170.871094 4.941406 170.773438 C 5.46875 170.613281 6.488281 170.613281 8.042969 170.773438 L 27.789062 172.800781 C 29.625 172.984375 30.769531 173.277344 31.195312 173.699219 C 31.871094 174.351562 32.167969 175.289062 32.03125 176.570312 L 31.914062 177.652344 L 32.75 177.734375 L 34.09375 164.625 L 33.253906 164.550781 L 33.140625 165.648438 C 33.078125 166.359375 32.820312 167.054688 32.390625 167.644531 C 32.054688 168.097656 31.71875 168.394531 31.328125 168.476562 C 30.820312 168.636719 29.796875 168.613281 28.234375 168.46875 L 8.472656 166.449219 C 6.648438 166.265625 5.515625 165.945312 5.054688 165.539062 C 4.375 164.882812 4.105469 163.9375 4.246094 162.695312 L 4.351562 161.585938 L 3.515625 161.5 L 2.1875 174.609375 L 3.007812 174.6875 Z M 3.128906 173.601562 " fill-opacity="1" fill-rule="nonzero"/><path fill="#ffffff" d="M 6.050781 151.847656 C 6.429688 151.394531 6.914062 151.050781 7.480469 150.789062 C 7.8125 150.640625 8.738281 150.472656 10.199219 150.261719 L 38.828125 146.160156 L 39.027344 145.375 L 16.648438 128.078125 C 15.332031 127.082031 14.433594 126.109375 13.929688 125.125 C 13.597656 124.472656 13.488281 123.558594 13.574219 122.476562 L 12.773438 122.253906 L 10.261719 131.390625 L 11.074219 131.613281 C 11.136719 131.453125 11.195312 131.316406 11.238281 131.253906 C 11.675781 130.28125 12.152344 129.652344 12.640625 129.34375 C 13.148438 129.015625 13.613281 128.925781 14.039062 129.039062 C 14.691406 129.222656 15.769531 129.875 17.273438 131.035156 L 32.523438 142.738281 L 13.054688 145.507812 C 11.320312 145.753906 10.101562 145.792969 9.386719 145.582031 C 8.839844 145.4375 8.472656 145.117188 8.246094 144.621094 C 8.019531 144.113281 8.042969 143.160156 8.277344 141.746094 L 7.480469 141.519531 L 4.144531 153.644531 L 4.964844 153.878906 C 5.273438 152.984375 5.636719 152.320312 6.050781 151.847656 " fill-opacity="1" fill-rule="nonzero"/><path fill="#ffffff" d="M 48.96875 101.03125 L 48.550781 101.820312 C 49.765625 103.566406 50.5625 105.066406 50.996094 106.335938 C 51.277344 107.300781 51.363281 108.199219 51.222656 108.996094 C 51.066406 109.808594 50.589844 110.976562 49.800781 112.515625 L 47.402344 117.148438 C 47.015625 117.910156 46.667969 118.386719 46.371094 118.5625 C 46.082031 118.761719 45.800781 118.832031 45.46875 118.792969 C 45.144531 118.773438 44.386719 118.441406 43.171875 117.835938 L 34.199219 113.171875 L 37.296875 107.175781 C 37.878906 106.042969 38.441406 105.253906 39.011719 104.863281 C 39.558594 104.441406 40.132812 104.246094 40.730469 104.246094 C 41.203125 104.257812 42.136719 104.503906 43.5625 105 L 43.964844 104.246094 L 34.464844 99.347656 L 34.074219 100.085938 C 35.582031 100.96875 36.46875 101.917969 36.730469 102.941406 C 36.925781 103.707031 36.621094 104.863281 35.820312 106.421875 L 32.714844 112.417969 L 21.9375 106.84375 L 25.808594 99.347656 C 26.515625 98.003906 27.109375 97.117188 27.585938 96.671875 C 28.210938 96.160156 28.878906 95.863281 29.589844 95.785156 C 30.320312 95.742188 31.4375 95.9375 33.035156 96.390625 L 33.449219 95.601562 L 27.316406 92.8125 L 16.441406 113.824219 L 17.167969 114.21875 L 17.683594 113.257812 C 18.269531 112.121094 18.945312 111.472656 19.734375 111.25 C 20.320312 111.097656 21.476562 111.484375 23.210938 112.394531 L 40.929688 121.550781 C 42.261719 122.234375 43.085938 122.773438 43.433594 123.152344 C 43.796875 123.523438 43.941406 123.96875 43.941406 124.519531 C 43.964844 125.261719 43.808594 125.949219 43.472656 126.589844 L 42.96875 127.574219 L 43.714844 127.941406 L 54.574219 106.925781 Z M 48.96875 101.03125 " fill-opacity="1" fill-rule="nonzero"/><path fill="#ffffff" d="M 34.828125 82.246094 C 35.53125 81.335938 36.363281 80.851562 37.226562 80.808594 C 37.871094 80.792969 38.953125 81.359375 40.433594 82.589844 L 55.90625 95.023438 C 57.273438 96.121094 58.035156 96.945312 58.203125 97.460938 C 58.515625 98.445312 58.246094 99.417969 57.4375 100.425781 L 56.726562 101.367188 L 57.359375 101.878906 L 65.625 91.613281 L 64.976562 91.085938 L 64.203125 92.019531 C 63.5 92.933594 62.691406 93.375 61.828125 93.402344 C 61.191406 93.445312 60.136719 92.871094 58.625 91.640625 L 51.660156 86.050781 C 51.820312 85.867188 51.972656 85.691406 52.136719 85.53125 C 52.269531 85.363281 52.421875 85.1875 52.535156 85.050781 C 52.84375 84.660156 53.222656 84.15625 53.675781 83.550781 L 71.386719 84.441406 L 76.53125 78.046875 L 75.875 77.53125 C 74.671875 78.726562 73.5 79.515625 72.324219 79.921875 C 71.160156 80.3125 69.328125 80.4375 66.84375 80.300781 L 56 79.722656 C 57.183594 77.347656 57.601562 75.253906 57.285156 73.421875 C 56.992188 71.570312 56.105469 70.085938 54.605469 68.886719 C 53.238281 67.796875 51.722656 67.25 50.054688 67.289062 C 48.375 67.351562 46.878906 67.804688 45.542969 68.71875 C 44.175781 69.628906 42.503906 71.363281 40.464844 73.898438 L 33.449219 82.617188 L 34.09375 83.148438 Z M 42.503906 74.09375 C 43.730469 72.574219 45.210938 71.707031 46.886719 71.523438 C 48.566406 71.339844 50.175781 71.832031 51.648438 73.0625 C 53.1875 74.269531 53.980469 75.882812 54.023438 77.851562 C 54.097656 79.773438 53.1875 81.902344 51.367188 84.191406 C 51.273438 84.289062 51.179688 84.425781 51.03125 84.585938 C 50.898438 84.742188 50.714844 84.941406 50.554688 85.152344 L 40.59375 77.152344 C 41.304688 75.804688 41.941406 74.796875 42.503906 74.09375 " fill-opacity="1" fill-rule="nonzero"/><path fill="#ffffff" d="M 67.34375 60.050781 C 68.476562 60.484375 69.742188 60.667969 71.148438 60.628906 C 72.558594 60.582031 74.753906 60.269531 77.707031 59.691406 C 80.667969 59.113281 82.511719 58.808594 83.253906 58.757812 C 84.351562 58.695312 85.316406 58.832031 86.136719 59.152344 C 86.941406 59.484375 87.597656 59.902344 88.085938 60.484375 C 88.976562 61.53125 89.316406 62.769531 89.113281 64.246094 C 88.9375 65.726562 88.113281 67.070312 86.679688 68.285156 C 85.441406 69.359375 84.058594 70.035156 82.542969 70.371094 C 81.035156 70.710938 79.671875 70.664062 78.460938 70.257812 C 77.242188 69.847656 75.761719 68.941406 74.035156 67.511719 L 73.40625 68.054688 L 80.21875 76.089844 L 80.847656 75.5625 C 80.476562 74.933594 80.296875 74.464844 80.324219 74.160156 C 80.339844 73.839844 80.503906 73.566406 80.777344 73.320312 C 81.089844 73.074219 81.953125 72.640625 83.382812 72.050781 C 84.816406 71.460938 85.742188 71.058594 86.144531 70.8125 C 86.835938 70.402344 87.507812 69.910156 88.183594 69.332031 C 90.363281 67.5 91.589844 65.34375 91.859375 62.882812 C 92.148438 60.417969 91.542969 58.3125 90.019531 56.542969 C 89.265625 55.609375 88.257812 54.90625 87.109375 54.414062 C 85.960938 53.945312 84.722656 53.726562 83.382812 53.761719 C 82.042969 53.824219 79.78125 54.1875 76.601562 54.871094 C 72.695312 55.707031 70.003906 56.003906 68.5625 55.742188 C 67.582031 55.582031 66.769531 55.140625 66.171875 54.425781 C 65.378906 53.5 65.042969 52.332031 65.214844 50.925781 C 65.378906 49.527344 66.066406 48.320312 67.261719 47.308594 C 68.3125 46.410156 69.566406 45.820312 71.03125 45.511719 C 72.464844 45.207031 73.855469 45.304688 75.164062 45.773438 C 76.503906 46.222656 77.90625 47.164062 79.433594 48.527344 L 80.089844 47.972656 L 73.203125 39.886719 L 72.558594 40.425781 C 72.910156 41.054688 73.074219 41.5625 73.03125 41.894531 C 72.988281 42.238281 72.824219 42.53125 72.507812 42.78125 C 72.253906 43.015625 71.671875 43.25 70.78125 43.507812 C 68.875 44.097656 67.292969 44.898438 66.042969 45.941406 C 64.046875 47.65625 62.929688 49.648438 62.671875 51.949219 C 62.414062 54.277344 63.007812 56.285156 64.421875 57.949219 C 65.246094 58.90625 66.210938 59.621094 67.34375 60.050781 " fill-opacity="1" fill-rule="nonzero"/><path fill="#ffffff" d="M 84.140625 34.027344 C 84.761719 33.660156 85.441406 33.425781 86.207031 33.375 C 86.734375 33.375 87.160156 33.460938 87.496094 33.707031 C 87.933594 34.027344 88.566406 34.839844 89.394531 36.140625 L 99.984375 52.945312 C 100.964844 54.511719 101.429688 55.59375 101.375 56.1875 C 101.285156 57.144531 100.703125 57.949219 99.632812 58.609375 L 98.703125 59.175781 L 99.15625 59.890625 L 110.292969 52.871094 L 109.839844 52.175781 L 108.914062 52.75 C 108.292969 53.132812 107.617188 53.355469 106.871094 53.402344 C 106.3125 53.414062 105.875 53.316406 105.542969 53.070312 C 105.121094 52.75 104.484375 51.949219 103.652344 50.621094 L 93.070312 33.828125 C 92.078125 32.265625 91.640625 31.1875 91.695312 30.582031 C 91.796875 29.640625 92.363281 28.847656 93.421875 28.179688 L 94.355469 27.589844 L 93.90625 26.886719 L 82.785156 33.902344 L 83.222656 34.605469 Z M 84.140625 34.027344 " fill-opacity="1" fill-rule="nonzero"/><path fill="#ffffff" d="M 102.3125 22.714844 C 103.363281 22.285156 104.300781 22.230469 105.113281 22.617188 C 105.683594 22.914062 106.34375 23.945312 107.070312 25.703125 L 114.714844 44.023438 C 115.371094 45.621094 115.65625 46.71875 115.542969 47.308594 C 115.359375 48.285156 114.664062 49.023438 113.484375 49.511719 L 112.40625 49.957031 L 112.707031 50.730469 L 125.386719 45.453125 C 130.882812 43.160156 134.359375 39.988281 135.828125 35.898438 C 137.125 32.265625 136.945312 28.460938 135.308594 24.511719 C 134.066406 21.582031 132.316406 19.28125 130.058594 17.59375 C 127.769531 15.90625 125.328125 15.03125 122.71875 14.992188 C 120.101562 14.960938 116.675781 15.820312 112.460938 17.582031 L 100.902344 22.378906 L 101.234375 23.167969 Z M 113.953125 18.824219 C 117.285156 17.433594 120.507812 17.421875 123.566406 18.773438 C 126.648438 20.152344 129.007812 22.789062 130.628906 26.714844 C 132.25 30.605469 132.464844 34.136719 131.269531 37.289062 C 130.085938 40.441406 127.886719 42.707031 124.648438 44.046875 C 123.453125 44.539062 121.878906 44.96875 119.953125 45.300781 L 109.925781 21.210938 C 111.359375 20.128906 112.699219 19.351562 113.953125 18.824219 " fill-opacity="1" fill-rule="nonzero"/><path fill="#ffffff" d="M 154.054688 36.121094 L 153.917969 35.269531 C 152.417969 35.40625 151.449219 35.355469 150.941406 35.074219 C 150.445312 34.804688 150.15625 34.433594 150.078125 33.964844 C 149.976562 33.386719 150.066406 32.476562 150.382812 31.207031 L 151.621094 26.085938 L 163.347656 24.054688 L 165.929688 28.105469 C 166.769531 29.421875 167.25 30.398438 167.34375 31.058594 C 167.4375 31.550781 167.289062 32.007812 166.921875 32.425781 C 166.574219 32.832031 165.796875 33.175781 164.597656 33.433594 L 164.742188 34.257812 L 176.6875 32.207031 L 176.542969 31.367188 C 175.292969 31.515625 174.269531 31.34375 173.464844 30.863281 C 172.679688 30.398438 171.679688 29.199219 170.476562 27.316406 L 155.613281 3.941406 L 154.820312 4.074219 L 148.457031 30.8125 C 147.914062 33.175781 147.324219 34.78125 146.683594 35.605469 C 146.371094 36.046875 145.59375 36.476562 144.367188 36.921875 L 144.519531 37.722656 Z M 155.195312 11.140625 L 162.433594 22.503906 L 152.027344 24.304688 Z M 155.195312 11.140625 " fill-opacity="1" fill-rule="nonzero"/><path fill="#ffffff" d="M 206.566406 28.746094 C 209.3125 26.015625 210.800781 22.503906 211.042969 18.246094 C 211.222656 15.070312 210.632812 12.210938 209.308594 9.703125 C 207.976562 7.203125 206.128906 5.355469 203.820312 4.1875 C 201.472656 3.015625 198.03125 2.316406 193.421875 2.066406 L 180.929688 1.394531 L 180.898438 2.226562 L 182.03125 2.289062 C 183.203125 2.363281 184.0625 2.734375 184.621094 3.4375 C 185.019531 3.9375 185.164062 5.132812 185.0625 7.070312 L 183.984375 26.902344 C 183.894531 28.621094 183.679688 29.753906 183.316406 30.222656 C 182.71875 31.011719 181.792969 31.390625 180.5 31.304688 L 179.324219 31.246094 L 179.292969 32.09375 L 193.015625 32.835938 C 198.964844 33.15625 203.488281 31.800781 206.566406 28.746094 M 188.167969 30.347656 L 189.566406 4.261719 C 191.320312 3.894531 192.882812 3.769531 194.246094 3.839844 C 197.863281 4.027344 200.75 5.40625 202.941406 7.992188 C 205.121094 10.5625 206.082031 13.949219 205.867188 18.195312 C 205.644531 22.40625 204.308594 25.667969 201.867188 28.019531 C 199.421875 30.359375 196.449219 31.421875 192.957031 31.230469 C 191.664062 31.167969 190.058594 30.859375 188.167969 30.347656 " fill-opacity="1" fill-rule="nonzero"/><path fill="#ffffff" d="M 253.515625 42.078125 C 256.980469 40.308594 259.441406 37.425781 260.953125 33.425781 C 262.078125 30.429688 262.394531 27.554688 261.882812 24.757812 C 261.382812 21.972656 260.191406 19.671875 258.332031 17.867188 C 256.429688 16.03125 253.363281 14.316406 249.074219 12.679688 L 237.375 8.273438 L 237.085938 9.058594 L 238.160156 9.476562 C 239.238281 9.875 239.953125 10.488281 240.273438 11.328125 C 240.492188 11.929688 240.273438 13.125 239.589844 14.910156 L 232.574219 33.488281 C 231.976562 35.121094 231.414062 36.097656 230.910156 36.4375 C 230.121094 37.003906 229.113281 37.089844 227.902344 36.648438 L 226.832031 36.234375 L 226.523438 37.003906 L 239.371094 41.867188 C 244.953125 43.972656 249.671875 44.046875 253.515625 42.078125 M 244.738281 13.605469 C 246.507812 13.816406 248.035156 14.144531 249.324219 14.625 C 252.707031 15.90625 255.054688 18.085938 256.355469 21.210938 C 257.644531 24.3125 257.546875 27.847656 256.046875 31.796875 C 254.558594 35.761719 252.308594 38.472656 249.265625 39.960938 C 246.25 41.449219 243.09375 41.585938 239.785156 40.320312 C 238.582031 39.863281 237.160156 39.097656 235.503906 38.027344 Z M 244.738281 13.605469 " fill-opacity="1" fill-rule="nonzero"/><path fill="#ffffff" d="M 259.390625 49.191406 L 258.941406 49.882812 L 278.871094 62.6875 L 285.285156 57.640625 L 284.5 57.144531 C 282.65625 58.207031 281.074219 58.855469 279.796875 59.152344 C 278.8125 59.363281 277.917969 59.335938 277.117188 59.136719 C 276.328125 58.917969 275.203125 58.34375 273.734375 57.402344 L 269.34375 54.574219 C 268.640625 54.117188 268.199219 53.734375 268.050781 53.453125 C 267.867188 53.121094 267.816406 52.800781 267.890625 52.503906 C 267.964844 52.183594 268.328125 51.457031 269.066406 50.3125 L 274.542969 41.78125 L 280.238281 45.414062 C 281.320312 46.128906 282.03125 46.769531 282.402344 47.347656 C 282.757812 47.9375 282.898438 48.542969 282.855469 49.121094 C 282.796875 49.597656 282.449219 50.511719 281.832031 51.886719 L 282.527344 52.332031 L 288.304688 43.347656 L 287.609375 42.890625 C 286.570312 44.304688 285.542969 45.105469 284.511719 45.277344 C 283.734375 45.402344 282.609375 44.984375 281.128906 44.046875 L 275.445312 40.390625 L 282.007812 30.171875 L 289.101562 34.703125 C 290.375 35.527344 291.21875 36.21875 291.605469 36.722656 C 292.066406 37.398438 292.296875 38.105469 292.296875 38.804688 C 292.296875 39.53125 292 40.648438 291.390625 42.1875 L 292.136719 42.683594 L 295.472656 36.808594 L 275.53125 24.003906 L 275.082031 24.730469 L 276.011719 25.3125 C 277.066406 26.015625 277.65625 26.742188 277.808594 27.539062 C 277.890625 28.128906 277.402344 29.25 276.359375 30.898438 L 265.574219 47.703125 C 264.765625 48.984375 264.148438 49.746094 263.734375 50.070312 C 263.34375 50.363281 262.878906 50.5 262.320312 50.460938 C 261.59375 50.390625 260.898438 50.167969 260.316406 49.773438 Z M 259.390625 49.191406 " fill-opacity="1" fill-rule="nonzero"/><path fill="#ffffff" d="M 309.488281 90.949219 C 311.777344 91.652344 314.472656 91.691406 317.554688 91.0625 L 317.4375 90.222656 C 314.304688 90.519531 311.929688 90.382812 310.285156 89.792969 C 308.644531 89.214844 307.160156 88.15625 305.835938 86.679688 C 304.328125 84.941406 303.382812 83.054688 303.027344 81.003906 C 302.671875 78.9375 302.957031 76.894531 303.898438 74.882812 C 304.851562 72.867188 306.363281 70.929688 308.445312 69.113281 C 310.988281 66.871094 313.410156 65.371094 315.734375 64.59375 C 318.066406 63.816406 320.160156 63.707031 322.03125 64.246094 C 323.886719 64.804688 325.496094 65.835938 326.835938 67.390625 C 328.445312 69.210938 329.289062 71.214844 329.410156 73.457031 C 329.511719 75.664062 328.707031 78.132812 326.988281 80.914062 L 327.441406 81.4375 L 334.832031 74.023438 L 334.304688 73.421875 C 333.640625 73.789062 333.050781 73.933594 332.46875 73.925781 C 332.074219 73.890625 331.730469 73.714844 331.460938 73.40625 C 331.265625 73.1875 331.097656 72.742188 330.933594 72.050781 C 330.335938 69.703125 329.289062 67.707031 327.828125 66.035156 C 325.933594 63.878906 323.660156 62.375 321.027344 61.503906 C 318.363281 60.613281 315.621094 60.507812 312.78125 61.160156 C 309.960938 61.824219 307.390625 63.164062 305.074219 65.195312 C 302.222656 67.707031 300.429688 70.664062 299.6875 74.085938 C 298.691406 78.675781 299.859375 82.890625 303.222656 86.703125 C 305.089844 88.832031 307.171875 90.261719 309.488281 90.949219 " fill-opacity="1" fill-rule="nonzero"/><path fill="#ffffff" d="M 330.164062 123.410156 C 330.378906 122.5 331.160156 121.171875 332.542969 119.425781 L 349.765625 97.757812 L 349.398438 97.066406 L 322.050781 99.777344 C 319.640625 100.023438 317.953125 99.984375 316.941406 99.65625 C 316.445312 99.507812 315.78125 98.914062 314.96875 97.90625 L 314.234375 98.300781 L 318.898438 106.78125 L 319.625 106.386719 C 319 105.03125 318.746094 104.074219 318.84375 103.507812 C 318.953125 102.953125 319.191406 102.546875 319.601562 102.324219 C 320.109375 102.054688 321.019531 101.84375 322.316406 101.707031 L 327.5625 101.214844 L 333.289062 111.628906 L 330.316406 115.375 C 329.367188 116.59375 328.578125 117.367188 327.992188 117.699219 C 327.5625 117.933594 327.082031 117.945312 326.574219 117.738281 C 326.066406 117.527344 325.492188 116.910156 324.839844 115.867188 L 324.117188 116.261719 L 329.949219 126.875 L 330.675781 126.476562 C 330.132812 125.34375 329.957031 124.3125 330.164062 123.410156 M 329.367188 101.03125 L 342.808594 99.699219 L 334.460938 110.265625 Z M 329.367188 101.03125 " fill-opacity="1" fill-rule="nonzero"/><path fill="#ffffff" d="M 346.332031 152.363281 L 346.269531 151.601562 C 344.222656 151.382812 342.648438 151.046875 341.59375 150.554688 C 340.507812 150.0625 339.671875 149.410156 339.070312 148.585938 C 338.457031 147.789062 337.800781 146.246094 337.117188 143.996094 L 336.480469 141.851562 C 335.90625 139.960938 335.640625 138.816406 335.671875 138.40625 C 335.699219 138.011719 335.867188 137.664062 336.105469 137.40625 C 336.464844 137.027344 337.269531 136.65625 338.457031 136.3125 L 356.925781 130.722656 C 358.6875 130.179688 359.816406 129.960938 360.351562 130.058594 C 360.886719 130.144531 361.398438 130.476562 361.902344 130.996094 C 362.398438 131.527344 362.867188 132.597656 363.335938 134.160156 L 364.125 133.910156 L 360.082031 120.605469 L 359.28125 120.839844 L 359.613281 121.945312 C 359.96875 123.066406 359.90625 124.003906 359.441406 124.746094 C 359.097656 125.296875 358.007812 125.847656 356.175781 126.402344 L 337.214844 132.15625 C 335.523438 132.644531 334.421875 132.816406 333.863281 132.65625 C 332.886719 132.359375 332.21875 131.59375 331.835938 130.355469 L 331.492188 129.25 L 330.714844 129.480469 L 337.589844 152.257812 Z M 346.332031 152.363281 " fill-opacity="1" fill-rule="nonzero"/><path fill="#ffffff" d="M 341.632812 161.441406 C 340.761719 160.984375 340.257812 160.097656 340.152344 158.804688 L 340.050781 157.660156 L 339.210938 157.71875 L 340.410156 171.398438 C 340.914062 177.332031 342.886719 181.605469 346.320312 184.234375 C 349.410156 186.589844 353.070312 187.558594 357.339844 187.203125 C 360.507812 186.921875 363.234375 185.949219 365.542969 184.296875 C 367.835938 182.636719 369.398438 180.570312 370.226562 178.09375 C 371.0625 175.609375 371.261719 172.097656 370.878906 167.519531 L 369.792969 155.074219 L 368.964844 155.148438 L 369.066406 156.304688 C 369.15625 157.449219 368.898438 158.347656 368.300781 159.003906 C 367.855469 159.46875 366.667969 159.765625 364.753906 159.925781 L 345.011719 161.660156 C 343.285156 161.808594 342.148438 161.734375 341.632812 161.441406 M 368.195312 164.011719 C 368.785156 165.699219 369.132812 167.222656 369.242188 168.589844 C 369.558594 172.195312 368.582031 175.234375 366.347656 177.75 C 364.113281 180.273438 360.878906 181.714844 356.675781 182.070312 C 352.460938 182.441406 349.058594 181.582031 346.394531 179.484375 C 343.746094 177.382812 342.257812 174.609375 341.96875 171.113281 C 341.847656 169.847656 341.914062 168.207031 342.179688 166.261719 Z M 368.195312 164.011719 " fill-opacity="1" fill-rule="nonzero"/><path fill="#ffffff" d="M 339.148438 212.304688 L 337.496094 224.292969 L 338.328125 224.429688 C 338.582031 223.199219 339.046875 222.277344 339.742188 221.652344 C 340.453125 221.03125 341.886719 220.441406 344.035156 219.875 L 370.8125 212.773438 L 370.921875 211.984375 L 347.351562 197.828125 C 345.285156 196.585938 343.949219 195.539062 343.332031 194.675781 C 343.003906 194.257812 342.84375 193.398438 342.792969 192.078125 L 341.960938 191.96875 L 340.636719 201.582031 L 341.476562 201.691406 C 341.765625 200.230469 342.148438 199.304688 342.546875 198.914062 C 342.960938 198.515625 343.390625 198.367188 343.859375 198.417969 C 344.449219 198.503906 345.300781 198.875 346.394531 199.539062 L 350.9375 202.296875 L 349.3125 214.066406 L 344.664062 215.296875 C 343.171875 215.714844 342.082031 215.851562 341.421875 215.777344 C 340.925781 215.691406 340.539062 215.445312 340.253906 214.953125 C 339.96875 214.484375 339.875 213.632812 340 212.402344 Z M 352.488281 203.207031 L 364.058594 210.1875 L 351.050781 213.660156 Z M 352.488281 203.207031 " fill-opacity="1" fill-rule="nonzero"/><path fill="#ffffff" d="M 343.585938 249.578125 C 344.714844 248.867188 346.472656 247.402344 348.886719 245.222656 C 351.808594 242.511719 353.988281 240.929688 355.367188 240.40625 C 356.308594 240.050781 357.203125 240.042969 358.101562 240.335938 C 359.246094 240.753906 360.101562 241.589844 360.6875 242.855469 C 361.230469 244.152344 361.277344 245.53125 360.742188 247.023438 C 360.28125 248.339844 359.511719 249.484375 358.410156 250.480469 C 357.3125 251.476562 356.070312 252.09375 354.683594 252.351562 C 353.324219 252.609375 351.632812 252.546875 349.625 252.128906 L 349.339844 252.902344 L 359.355469 256.425781 L 359.632812 255.636719 C 359.019531 255.257812 358.640625 254.898438 358.515625 254.601562 C 358.363281 254.285156 358.363281 253.9375 358.484375 253.589844 C 358.605469 253.25 358.988281 252.730469 359.621094 252.070312 C 360.980469 250.617188 361.910156 249.109375 362.460938 247.574219 C 363.320312 245.125 363.296875 242.824219 362.34375 240.703125 C 361.398438 238.589844 359.890625 237.144531 357.8125 236.410156 C 356.613281 236.027344 355.425781 235.890625 354.234375 236.074219 C 353.050781 236.273438 351.867188 236.753906 350.679688 237.503906 C 349.46875 238.253906 347.75 239.636719 345.480469 241.625 C 343.246094 243.609375 341.785156 244.816406 341.183594 245.222656 C 340.25 245.8125 339.371094 246.179688 338.5 246.328125 C 337.628906 246.476562 336.847656 246.417969 336.128906 246.171875 C 334.839844 245.714844 333.917969 244.804688 333.332031 243.433594 C 332.75 242.085938 332.789062 240.519531 333.398438 238.734375 C 333.9375 237.183594 334.777344 235.902344 335.929688 234.835938 C 337.074219 233.785156 338.257812 233.15625 339.507812 232.875 C 340.765625 232.628906 342.5 232.664062 344.707031 233.023438 L 344.976562 232.222656 L 335.042969 228.75 L 334.761719 229.535156 C 335.410156 229.871094 335.785156 230.179688 335.929688 230.453125 C 336.070312 230.734375 336.089844 231.050781 335.953125 231.398438 C 335.816406 231.792969 335.289062 232.59375 334.371094 233.8125 C 333.417969 235.054688 332.832031 235.855469 332.621094 236.3125 C 332.234375 237 331.878906 237.765625 331.570312 238.597656 C 330.628906 241.28125 330.667969 243.742188 331.65625 246 C 332.660156 248.261719 334.242188 249.792969 336.449219 250.5625 C 337.597656 250.9375 338.804688 251.058594 340.039062 250.921875 C 341.285156 250.761719 342.460938 250.292969 343.585938 249.578125 " fill-opacity="1" fill-rule="nonzero"/><path fill="#ffffff" d="M 63.5 298.824219 L 64.027344 299.292969 C 64.570312 299.746094 64.832031 300.261719 64.855469 300.804688 C 64.855469 301.1875 64.457031 301.824219 63.695312 302.699219 L 55.742188 311.84375 C 55.03125 312.65625 54.515625 313.113281 54.175781 313.199219 C 53.585938 313.375 52.980469 313.175781 52.386719 312.667969 L 51.855469 312.207031 L 51.519531 312.585938 L 62.480469 322.136719 L 67.03125 319.355469 L 66.746094 318.972656 C 65.609375 319.539062 64.695312 319.875 63.984375 319.957031 C 63.265625 320.054688 62.644531 319.984375 62.042969 319.753906 C 61.472656 319.539062 60.632812 318.949219 59.539062 318.023438 L 58.515625 317.101562 C 57.601562 316.3125 57.09375 315.808594 56.976562 315.585938 C 56.863281 315.367188 56.816406 315.144531 56.867188 314.921875 C 56.945312 314.613281 57.242188 314.171875 57.742188 313.605469 L 65.496094 304.695312 C 66.238281 303.84375 66.742188 303.367188 67.050781 303.242188 C 67.359375 303.117188 67.730469 303.117188 68.148438 303.242188 C 68.578125 303.351562 69.160156 303.734375 69.917969 304.410156 L 70.25 304.015625 L 63.835938 298.441406 Z M 63.5 298.824219 " fill-opacity="1" fill-rule="nonzero"/><path fill="#ffffff" d="M 92.445312 323.308594 C 93.140625 323.0625 93.769531 323.132812 94.367188 323.589844 L 94.941406 323.996094 L 95.265625 323.589844 L 89.898438 319.652344 L 89.589844 320.046875 L 90.148438 320.464844 C 90.726562 320.894531 91.042969 321.386719 91.089844 321.917969 C 91.140625 322.308594 90.792969 322.960938 90.097656 323.921875 L 85.566406 330.039062 C 84.390625 331.628906 83.394531 332.660156 82.632812 333.101562 C 81.832031 333.558594 80.886719 333.746094 79.789062 333.558594 C 78.699219 333.449219 77.667969 333.007812 76.667969 332.269531 C 75.90625 331.703125 75.339844 331.097656 75.003906 330.410156 C 74.695312 329.757812 74.550781 329.09375 74.570312 328.460938 C 74.59375 327.851562 74.847656 327.125 75.300781 326.261719 C 75.746094 325.433594 76.199219 324.722656 76.636719 324.132812 L 81.5 317.570312 C 82.125 316.710938 82.632812 316.226562 83.003906 316.09375 C 83.570312 315.898438 84.160156 316.027344 84.800781 316.472656 L 85.375 316.90625 L 85.667969 316.511719 L 79.152344 311.683594 L 78.828125 312.082031 L 79.414062 312.511719 C 79.976562 312.933594 80.289062 313.375 80.339844 313.851562 C 80.371094 314.332031 80.058594 315.035156 79.363281 315.96875 L 74.992188 321.878906 C 73.660156 323.6875 72.863281 325.027344 72.589844 325.84375 C 72.234375 327.085938 72.277344 328.304688 72.703125 329.5 C 73.132812 330.703125 74.1875 331.925781 75.828125 333.132812 C 77.363281 334.25 78.757812 334.839844 80.074219 334.902344 C 81.394531 334.941406 82.523438 334.671875 83.4375 334.054688 C 84.351562 333.4375 85.382812 332.375 86.503906 330.878906 L 91.027344 324.746094 C 91.644531 323.910156 92.132812 323.429688 92.445312 323.308594 " fill-opacity="1" fill-rule="nonzero"/><path fill="#ffffff" d="M 115.070312 339.324219 C 115.59375 338.410156 116.027344 337.882812 116.355469 337.734375 C 116.890625 337.476562 117.496094 337.574219 118.179688 337.96875 L 118.761719 338.300781 L 119.011719 337.871094 L 114.414062 335.164062 L 101.230469 344.492188 L 102.730469 328.378906 L 98.144531 325.683594 L 97.867188 326.136719 C 98.535156 326.507812 98.980469 326.875 99.179688 327.210938 C 99.390625 327.539062 99.484375 327.847656 99.476562 328.144531 C 99.4375 328.550781 99.222656 329.128906 98.800781 329.832031 L 92.601562 340.441406 C 92.082031 341.339844 91.679688 341.882812 91.316406 342.015625 C 90.800781 342.292969 90.195312 342.214844 89.507812 341.808594 L 88.933594 341.464844 L 88.6875 341.90625 L 94.320312 345.21875 L 94.585938 344.761719 L 94.007812 344.433594 C 93.375 344.0625 92.984375 343.628906 92.898438 343.117188 C 92.839844 342.742188 93.09375 342.054688 93.65625 341.058594 L 99.984375 330.226562 L 98.304688 347.519531 L 98.695312 347.742188 L 112.902344 337.757812 L 106.601562 348.582031 C 106.058594 349.492188 105.632812 350.019531 105.308594 350.179688 C 104.78125 350.4375 104.1875 350.367188 103.488281 349.945312 L 102.914062 349.613281 L 102.65625 350.070312 L 109.546875 354.082031 L 109.8125 353.652344 L 109.246094 353.316406 C 108.601562 352.9375 108.246094 352.507812 108.125 351.992188 C 108.0625 351.617188 108.308594 350.929688 108.898438 349.9375 Z M 115.070312 339.324219 " fill-opacity="1" fill-rule="nonzero"/><path fill="#ffffff" d="M 129.4375 342.953125 L 130.066406 343.246094 L 130.265625 342.78125 L 122.957031 339.460938 L 122.726562 339.925781 L 123.332031 340.195312 C 123.742188 340.382812 124.089844 340.652344 124.363281 341.019531 C 124.550781 341.289062 124.648438 341.550781 124.632812 341.769531 C 124.601562 342.105469 124.414062 342.722656 124.007812 343.605469 L 119.003906 354.648438 C 118.53125 355.65625 118.15625 356.285156 117.835938 356.445312 C 117.324219 356.726562 116.710938 356.679688 116 356.371094 L 115.402344 356.089844 L 115.1875 356.570312 L 122.519531 359.890625 L 122.71875 359.425781 L 122.105469 359.128906 C 121.703125 358.957031 121.375 358.683594 121.09375 358.316406 C 120.90625 358.035156 120.804688 357.75 120.808594 357.542969 C 120.832031 357.210938 121.039062 356.605469 121.421875 355.746094 L 126.441406 344.675781 C 126.910156 343.667969 127.308594 343.050781 127.636719 342.890625 C 128.152344 342.621094 128.753906 342.65625 129.4375 342.953125 " fill-opacity="1" fill-rule="nonzero"/><path fill="#ffffff" d="M 152.53125 350.808594 L 146.339844 348.726562 L 146.175781 349.21875 L 146.789062 349.40625 C 147.484375 349.648438 147.941406 349.984375 148.148438 350.472656 C 148.285156 350.832031 148.1875 351.570312 147.816406 352.652344 L 144.367188 362.921875 L 137.972656 345.921875 L 133.140625 344.296875 L 132.96875 344.777344 C 133.496094 344.960938 133.863281 345.105469 134.101562 345.289062 C 134.558594 345.636719 134.882812 345.949219 135.09375 346.214844 C 135.285156 346.5 135.554688 347.027344 135.855469 347.816406 L 131.6875 360.175781 C 131.355469 361.171875 131.058594 361.789062 130.773438 362.011719 C 130.296875 362.355469 129.683594 362.394531 128.933594 362.148438 L 128.296875 361.933594 L 128.144531 362.429688 L 134.351562 364.519531 L 134.5 364.03125 L 133.882812 363.808594 C 133.171875 363.574219 132.730469 363.21875 132.511719 362.714844 C 132.371094 362.378906 132.480469 361.667969 132.855469 360.570312 L 136.53125 349.613281 L 143.453125 367.882812 L 143.933594 368.054688 L 148.976562 353.058594 C 149.292969 352.046875 149.617188 351.4375 149.90625 351.214844 C 150.371094 350.878906 150.988281 350.832031 151.730469 351.078125 L 152.359375 351.300781 Z M 152.53125 350.808594 " fill-opacity="1" fill-rule="nonzero"/><path fill="#ffffff" d="M 168.925781 369.496094 L 165.300781 352.949219 L 164.835938 352.875 L 155.570312 366.875 C 154.742188 368.117188 154.070312 368.902344 153.542969 369.246094 C 153.265625 369.433594 152.734375 369.519531 151.945312 369.519531 L 151.851562 370.011719 L 157.65625 371.09375 L 157.761719 370.59375 C 156.878906 370.34375 156.324219 370.109375 156.097656 369.84375 C 155.863281 369.582031 155.773438 369.300781 155.824219 369.023438 C 155.902344 368.671875 156.132812 368.175781 156.589844 367.503906 L 158.351562 364.820312 L 165.53125 366.113281 L 166.164062 368.988281 C 166.34375 369.925781 166.425781 370.59375 166.34375 370.972656 C 166.296875 371.28125 166.121094 371.5 165.824219 371.671875 C 165.539062 371.847656 165 371.847656 164.265625 371.785156 L 164.164062 372.277344 L 171.457031 373.605469 L 171.550781 373.101562 C 170.8125 372.917969 170.257812 372.597656 169.90625 372.167969 C 169.542969 371.710938 169.214844 370.8125 168.925781 369.496094 M 158.980469 363.878906 L 163.550781 357.011719 L 165.324219 365.066406 Z M 158.980469 363.878906 " fill-opacity="1" fill-rule="nonzero"/><path fill="#ffffff" d="M 234.265625 361.800781 C 233.785156 361.207031 233.175781 360.753906 232.414062 360.414062 C 231.699219 360.078125 230.355469 359.648438 228.425781 359.128906 C 226.066406 358.515625 224.527344 357.949219 223.816406 357.382812 C 223.304688 357.035156 222.992188 356.566406 222.859375 356.015625 C 222.679688 355.277344 222.839844 354.574219 223.296875 353.847656 C 223.777344 353.148438 224.480469 352.691406 225.40625 352.445312 C 226.246094 352.246094 227.101562 352.261719 227.964844 352.507812 C 228.832031 352.742188 229.574219 353.171875 230.152344 353.785156 C 230.742188 354.402344 231.28125 355.289062 231.710938 356.460938 L 232.234375 356.347656 L 230.703125 350.03125 L 230.203125 350.144531 C 230.207031 350.585938 230.164062 350.890625 230.054688 351.078125 C 229.941406 351.253906 229.757812 351.359375 229.53125 351.414062 C 229.320312 351.472656 228.957031 351.449219 228.390625 351.351562 C 227.199219 351.140625 226.09375 351.140625 225.136719 351.359375 C 223.574219 351.742188 222.425781 352.53125 221.628906 353.714844 C 220.867188 354.894531 220.613281 356.152344 220.941406 357.480469 C 221.125 358.234375 221.453125 358.859375 221.941406 359.414062 C 222.433594 359.957031 223.066406 360.421875 223.863281 360.753906 C 224.640625 361.140625 225.925781 361.582031 227.691406 362.058594 C 229.476562 362.578125 230.554688 362.90625 230.984375 363.09375 C 231.597656 363.363281 232.074219 363.710938 232.4375 364.105469 C 232.792969 364.496094 233.039062 364.925781 233.140625 365.367188 C 233.320312 366.1875 233.179688 366.972656 232.65625 367.707031 C 232.160156 368.433594 231.355469 368.96875 230.222656 369.222656 C 229.25 369.472656 228.3125 369.472656 227.394531 369.238281 C 226.46875 368.988281 225.742188 368.585938 225.195312 368.042969 C 224.632812 367.488281 224.089844 366.578125 223.535156 365.335938 L 223.03125 365.429688 L 224.550781 371.699219 L 225.035156 371.585938 C 224.996094 371.144531 225.035156 370.851562 225.113281 370.675781 C 225.222656 370.515625 225.394531 370.417969 225.613281 370.355469 C 225.84375 370.28125 226.441406 370.304688 227.359375 370.382812 C 228.3125 370.453125 228.933594 370.480469 229.222656 370.453125 C 229.703125 370.417969 230.222656 370.34375 230.742188 370.222656 C 232.433594 369.816406 233.695312 368.96875 234.535156 367.722656 C 235.367188 366.453125 235.609375 365.136719 235.28125 363.746094 C 235.109375 363.042969 234.773438 362.367188 234.265625 361.800781 " fill-opacity="1" fill-rule="nonzero"/><path fill="#ffffff" d="M 249.757812 346.410156 C 248.878906 345.871094 247.90625 345.617188 246.871094 345.625 C 245.84375 345.625 244.527344 345.921875 242.960938 346.5 L 236.492188 348.863281 L 236.667969 349.355469 L 237.332031 349.097656 C 238 348.863281 238.566406 348.875 239.046875 349.117188 C 239.386719 349.292969 239.757812 349.945312 240.15625 351.066406 L 244.339844 362.429688 C 244.699219 363.449219 244.867188 364.128906 244.765625 364.460938 C 244.625 365.050781 244.191406 365.492188 243.429688 365.753906 L 242.785156 366 L 242.960938 366.488281 L 250.496094 363.722656 L 250.339844 363.242188 L 249.660156 363.484375 C 248.976562 363.722656 248.429688 363.722656 247.945312 363.476562 C 247.617188 363.292969 247.242188 362.625 246.835938 361.53125 L 244.949219 356.398438 C 245.546875 356.324219 246.113281 356.210938 246.628906 356.089844 C 247.152344 355.976562 247.628906 355.84375 248.0625 355.671875 C 249.769531 355.046875 250.953125 354.105469 251.570312 352.851562 C 252.183594 351.609375 252.21875 350.265625 251.695312 348.824219 C 251.328125 347.742188 250.675781 346.96875 249.757812 346.410156 M 248.871094 353.234375 C 248.453125 354.167969 247.804688 354.808594 246.902344 355.117188 C 246.648438 355.226562 246.339844 355.328125 245.964844 355.402344 C 245.605469 355.496094 245.167969 355.574219 244.675781 355.65625 L 241.996094 348.324219 C 242.632812 347.917969 243.15625 347.621094 243.609375 347.445312 C 244.339844 347.191406 245.027344 347.113281 245.722656 347.226562 C 246.410156 347.351562 247.046875 347.660156 247.59375 348.210938 C 248.160156 348.75 248.570312 349.402344 248.832031 350.15625 C 249.246094 351.277344 249.253906 352.296875 248.871094 353.234375 " fill-opacity="1" fill-rule="nonzero"/><path fill="#ffffff" d="M 275.414062 351.300781 C 274.851562 351.152344 274.039062 350.625 273.03125 349.738281 L 260.246094 338.621094 L 259.808594 338.804688 L 260.726562 355.621094 C 260.800781 357.085938 260.734375 358.132812 260.527344 358.726562 C 260.398438 359.042969 260.035156 359.414062 259.390625 359.894531 L 259.617188 360.363281 L 264.917969 357.714844 L 264.695312 357.273438 C 263.847656 357.625 263.265625 357.75 262.925781 357.6875 C 262.578125 357.605469 262.339844 357.457031 262.21875 357.183594 C 262.054688 356.863281 261.964844 356.308594 261.925781 355.507812 L 261.753906 352.285156 L 268.273438 349.070312 L 270.488281 350.980469 C 271.195312 351.609375 271.652344 352.113281 271.847656 352.480469 C 271.976562 352.738281 271.976562 353.011719 271.835938 353.320312 C 271.691406 353.652344 271.28125 353.988281 270.636719 354.355469 L 270.859375 354.796875 L 277.511719 351.523438 L 277.28125 351.042969 C 276.585938 351.363281 275.949219 351.433594 275.414062 351.300781 M 261.691406 351.164062 L 261.246094 342.90625 L 267.472656 348.308594 Z M 261.691406 351.164062 " fill-opacity="1" fill-rule="nonzero"/><path fill="#ffffff" d="M 295.207031 338.71875 C 294.472656 338.734375 293.375 338.460938 291.953125 337.90625 L 285.753906 335.519531 C 286.886719 334.375 287.539062 333.230469 287.699219 332.097656 C 287.875 330.988281 287.636719 329.941406 287.003906 328.957031 C 286.410156 328.054688 285.625 327.464844 284.65625 327.171875 C 283.664062 326.878906 282.707031 326.878906 281.742188 327.148438 C 280.8125 327.433594 279.492188 328.121094 277.808594 329.203125 L 272.09375 332.945312 L 272.371094 333.378906 L 272.980469 332.96875 C 273.566406 332.601562 274.113281 332.476562 274.648438 332.613281 C 275.03125 332.710938 275.527344 333.253906 276.171875 334.253906 L 282.800781 344.398438 C 283.394531 345.304688 283.695312 345.917969 283.664062 346.265625 C 283.664062 346.890625 283.363281 347.410156 282.695312 347.832031 L 282.089844 348.222656 L 282.367188 348.679688 L 289.101562 344.261719 L 288.804688 343.839844 L 288.214844 344.238281 C 287.625 344.628906 287.070312 344.738281 286.546875 344.578125 C 286.164062 344.492188 285.664062 343.941406 285.019531 342.964844 L 282.035156 338.386719 C 282.175781 338.328125 282.289062 338.242188 282.410156 338.179688 C 282.523438 338.089844 282.625 338.03125 282.738281 337.96875 C 282.992188 337.808594 283.296875 337.601562 283.691406 337.304688 L 293.808594 341.195312 L 298.015625 338.4375 L 297.742188 338.019531 C 296.8125 338.472656 295.96875 338.71875 295.207031 338.71875 M 284.984375 334.054688 C 284.632812 335.183594 283.710938 336.269531 282.21875 337.253906 C 282.152344 337.28125 282.046875 337.339844 281.941406 337.417969 C 281.839844 337.476562 281.703125 337.5625 281.570312 337.644531 L 277.285156 331.097656 C 277.957031 330.460938 278.515625 330.003906 278.957031 329.695312 C 279.980469 329.054688 280.996094 328.835938 282.019531 329.046875 C 283.027344 329.25 283.855469 329.84375 284.480469 330.800781 C 285.148438 331.8125 285.316406 332.90625 284.984375 334.054688 " fill-opacity="1" fill-rule="nonzero"/><path fill="#ffffff" d="M 310.011719 317.148438 C 309.90625 316.585938 310.140625 316.09375 310.679688 315.632812 L 310.957031 315.40625 L 310.621094 315 L 305.03125 319.664062 L 305.355469 320.054688 C 305.953125 319.578125 306.425781 319.292969 306.730469 319.230469 C 307.054688 319.160156 307.371094 319.167969 307.652344 319.320312 C 307.972656 319.441406 308.398438 319.871094 309.007812 320.597656 L 312.484375 324.769531 C 312.246094 325.414062 311.925781 326.003906 311.535156 326.554688 C 311.148438 327.121094 310.691406 327.601562 310.164062 328.046875 C 309.253906 328.796875 308.144531 329.273438 306.855469 329.460938 C 305.53125 329.644531 304.152344 329.398438 302.671875 328.710938 C 301.210938 328.007812 299.886719 326.988281 298.742188 325.597656 C 297.339844 323.898438 296.5 322.101562 296.296875 320.230469 C 296.042969 317.964844 296.835938 316.078125 298.691406 314.542969 C 300.039062 313.421875 301.480469 312.914062 303.023438 313.027344 C 304.089844 313.128906 305.296875 313.570312 306.628906 314.382812 L 306.988281 314.082031 L 302.839844 309.835938 L 302.425781 310.160156 C 302.699219 310.527344 302.859375 310.824219 302.875 311.03125 C 302.875 311.230469 302.816406 311.390625 302.667969 311.5 C 302.550781 311.621094 302.210938 311.773438 301.691406 311.941406 C 300.648438 312.324219 299.886719 312.632812 299.390625 312.902344 C 298.894531 313.167969 298.382812 313.53125 297.855469 313.960938 C 296.414062 315.171875 295.421875 316.511719 294.878906 318.027344 C 294.246094 319.796875 294.132812 321.695312 294.550781 323.6875 C 294.925781 325.351562 295.628906 326.828125 296.675781 328.09375 C 298.128906 329.855469 299.976562 330.941406 302.175781 331.382812 C 305.09375 331.960938 307.984375 331.097656 310.746094 328.785156 C 311.722656 327.957031 312.523438 327.136719 313.144531 326.261719 C 313.777344 325.398438 314.3125 324.414062 314.765625 323.296875 L 311.074219 318.863281 C 310.433594 318.089844 310.085938 317.511719 310.011719 317.148438 " fill-opacity="1" fill-rule="nonzero"/><path fill="#ffffff" d="M 320.441406 295.917969 C 317.871094 295.953125 315.746094 296.863281 314.078125 298.632812 C 312.394531 300.445312 311.574219 302.523438 311.546875 304.925781 C 311.53125 307.695312 312.621094 310.121094 314.789062 312.152344 C 316.929688 314.132812 319.253906 315.121094 321.808594 315.082031 C 324.355469 315.074219 326.5 314.109375 328.273438 312.207031 C 330.007812 310.355469 330.808594 308.128906 330.671875 305.519531 C 330.523438 302.933594 329.410156 300.640625 327.335938 298.6875 C 325.316406 296.816406 323.015625 295.878906 320.441406 295.917969 M 327.527344 311.574219 C 326.414062 312.78125 325.035156 313.324219 323.421875 313.199219 C 321.324219 313.039062 319.148438 311.882812 316.929688 309.789062 C 314.730469 307.746094 313.519531 305.738281 313.246094 303.773438 C 313.03125 302.15625 313.488281 300.769531 314.636719 299.535156 C 315.875 298.21875 317.28125 297.613281 318.898438 297.75 C 320.925781 297.898438 323.09375 299.066406 325.4375 301.257812 C 327.609375 303.289062 328.796875 305.210938 329.011719 306.960938 C 329.238281 308.765625 328.753906 310.28125 327.527344 311.574219 " fill-opacity="1" fill-rule="nonzero"/><path fill="#ffffff" d="M 239 154.597656 C 238.570312 153.71875 237.78125 152.929688 236.878906 151.675781 C 236.832031 151.539062 236.757812 151.394531 236.601562 151.234375 C 235.792969 150.214844 234.777344 149.414062 234.066406 148.328125 C 233.605469 147.972656 233.183594 147.601562 232.808594 147.246094 C 226.609375 141.976562 218.933594 135.207031 209.675781 132.816406 C 206.613281 132.089844 203.386719 131.792969 199.960938 132.15625 C 196.699219 131.351562 193.335938 130.933594 190.421875 130.933594 C 187.660156 130.863281 184.949219 130.996094 182.316406 131.453125 C 178.464844 132.039062 174.671875 133.046875 171.007812 134.355469 C 164.175781 136.855469 157.527344 140.144531 150.972656 142.984375 C 147.167969 146.492188 144.277344 150.214844 141.648438 154.074219 C 140.558594 155.765625 139.527344 157.425781 138.507812 159.183594 C 134.351562 167.511719 132.316406 176.257812 132.769531 185.824219 L 132.335938 185.824219 C 134.375 196.167969 134.824219 207.390625 138.550781 216.511719 C 139.433594 218.488281 140.46875 220.53125 141.683594 222.363281 C 142.273438 223.226562 142.9375 224.035156 143.601562 224.824219 C 149.945312 234.082031 160.003906 238.671875 171.09375 240.285156 C 174.816406 240.851562 178.609375 241.074219 182.398438 240.996094 C 185.097656 240.996094 187.875 240.851562 190.496094 240.632812 C 195.964844 240.175781 201.371094 238.929688 206.332031 237.703125 C 207.496094 237.554688 208.65625 237.417969 209.75 237.175781 C 220.261719 234.980469 227.03125 228.566406 232.867188 220.984375 C 234.164062 219.296875 235.414062 217.476562 236.640625 215.640625 C 236.796875 215.503906 236.875 215.359375 236.941406 215.222656 C 237.820312 214.410156 238.28125 213.164062 239.046875 212.277344 C 241.519531 208.574219 244.445312 204.402344 246.925781 201.125 C 252.738281 185.296875 248.144531 167.417969 239 154.597656 M 236.910156 189.027344 C 236.855469 189.386719 236.789062 189.691406 236.617188 189.972656 C 235.691406 192.59375 234.089844 195.304688 234.089844 198.589844 C 233.652344 199.539062 233.273438 200.472656 232.847656 201.433594 C 227.835938 211.933594 219.660156 220.320312 209.75 225.292969 C 203.921875 228.210938 197.425781 229.910156 190.492188 230.191406 L 188.453125 230.191406 C 186.398438 230.558594 184.4375 230.636719 182.398438 230.5 C 178.53125 230.203125 174.652344 229.105469 171.09375 227.582031 C 164.890625 224.898438 159.40625 220.871094 155.183594 217.402344 C 146.054688 200.328125 142.320312 182.449219 152.671875 163.761719 C 156.792969 156.90625 163.296875 150.707031 171.039062 146.914062 C 174.597656 145.164062 178.394531 143.917969 182.328125 143.332031 C 184.304688 143.035156 186.328125 142.890625 188.402344 142.949219 L 190.433594 142.949219 C 196.996094 142.933594 203.554688 144.117188 209.679688 146.457031 C 216.753906 149.152344 223.257812 153.363281 228.660156 159.121094 C 229.894531 162.265625 231.441406 165.316406 232.832031 168.46875 C 234.5 172.394531 235.898438 176.570312 236.113281 181.148438 C 236.335938 181.371094 236.496094 181.578125 236.617188 181.875 C 236.855469 182.246094 236.910156 182.601562 236.910156 182.820312 C 237.796875 184.878906 237.796875 186.984375 236.910156 189.027344 " fill-opacity="1" fill-rule="nonzero"/><path fill="#ffffff" d="M 226.109375 170.363281 C 222.53125 163.078125 216.261719 158.199219 209.699219 154.617188 C 208.007812 153.671875 206.265625 152.871094 204.585938 152.0625 C 199.988281 150.839844 195.035156 149.597656 190.429688 149.597656 C 187.679688 149.449219 184.972656 149.519531 182.347656 149.964844 C 179.199219 150.554688 176.21875 151.714844 173.441406 153.757812 C 172.636719 154.203125 171.839844 154.644531 171.039062 155.15625 C 161.640625 160.929688 155.816406 171.285156 153.480469 182.078125 C 147.722656 190.328125 156.824219 197.039062 158.097656 203.671875 C 161.070312 208.121094 165.46875 213.867188 171.089844 218.09375 C 174.445312 220.738281 178.242188 222.707031 182.390625 223.640625 C 184.929688 224.210938 187.652344 224.367188 190.492188 224 C 198.300781 223.621094 204.492188 221.351562 209.746094 217.933594 C 216.230469 213.621094 221.34375 207.5625 226.140625 201.140625 C 226.570312 198.589844 226.140625 196.546875 228.691406 194.0625 C 228.683594 187.414062 229.914062 182.390625 227.003906 177.863281 C 229.902344 174.945312 225.742188 173.710938 226.109375 170.363281 M 215.410156 195.757812 C 214.039062 198.519531 212.046875 201.210938 209.722656 203.628906 C 205.210938 208.230469 199.007812 211.355469 192.148438 211.074219 L 190.476562 210.730469 L 182.382812 209.265625 L 178.875 208.609375 C 175.964844 205.542969 173.253906 202.417969 171.0625 199.058594 C 167.269531 193.371094 164.871094 186.972656 165.144531 179.167969 C 166.738281 175.65625 168.34375 171.359375 171.046875 167.75 C 172.507812 165.808594 174.398438 164.121094 176.730469 162.878906 C 178.402344 161.792969 180.300781 161.058594 182.347656 160.539062 C 184.882812 159.949219 187.679688 159.730469 190.4375 160.011719 C 197.378906 160.011719 204.738281 162.421875 209.707031 165.648438 C 209.839844 165.707031 209.914062 165.769531 210 165.769531 C 217.003906 172.835938 219.128906 186.121094 215.410156 195.757812 " fill-opacity="1" fill-rule="nonzero"/><path fill="#ffffff" d="M 207.511719 172.851562 C 203.359375 167.886719 196.71875 167.886719 190.453125 167.457031 L 189.644531 167.457031 C 187.328125 168.480469 184.753906 169.734375 182.351562 171.1875 C 178.84375 173.316406 175.78125 176.078125 174.265625 179.523438 C 175.722656 187.019531 176.253906 195.414062 182.382812 199.476562 C 183.398438 200.132812 184.550781 200.730469 185.972656 201.164062 C 187.640625 201.53125 188.863281 201.964844 190.46875 201.964844 C 196.320312 202.394531 202.152344 199.464844 206.304688 194.886719 C 207.46875 192.765625 208.757812 190.503906 209.722656 188.105469 C 210.886719 185.320312 211.546875 182.402344 210.886719 179.484375 C 210.59375 178.699219 210.140625 178.046875 209.71875 177.382812 C 208.835938 176.050781 207.808594 174.820312 207.511719 172.851562 M 193.8125 191.964844 C 191.777344 192.84375 190.902344 191.964844 190.460938 191.171875 C 189.667969 190.304688 189.230469 189.050781 188.425781 189.050781 C 186.738281 187.019531 187.609375 184.113281 187.609375 182.054688 C 188.425781 180.742188 189.210938 179.953125 190.453125 179.953125 C 192.996094 179.144531 196.296875 181.171875 197.535156 183.660156 C 198.78125 187.460938 195.492188 189.492188 193.8125 191.964844 " fill-opacity="1" fill-rule="nonzero"/></svg>